<svg width="549" height="556" viewBox="0 0 549 556" fill="none" xmlns="http://www.w3.org/2000/svg">
<path d="M114.046 358.244L103.557 360.142L101.497 348.78L89.0356 351.04L91.0958 362.402L80.6198 364.3L82.9547 377.199L93.4308 375.301L95.491 386.663L107.952 384.416L105.892 373.041L116.381 371.143L114.046 358.244Z" stroke="#FFDADA" stroke-linecap="round" stroke-linejoin="round"/>
<path d="M218.756 184.184L208.705 180.638L212.551 169.75L200.614 165.53L196.768 176.418L186.716 172.872L182.359 185.233L192.398 188.779L188.552 199.68L200.489 203.888L204.347 193L214.386 196.546L218.756 184.184Z" stroke="#FFDADA" stroke-linecap="round" stroke-linejoin="round"/>
<path d="M472.279 314.317L462.865 319.299L457.458 309.086L446.258 315.004L451.664 325.218L442.25 330.2L448.381 341.787L457.795 336.805L463.202 347.007L474.402 341.088L468.996 330.874L478.41 325.892L472.279 314.317Z" stroke="#FFDADA" stroke-linecap="round" stroke-linejoin="round"/>
<path d="M70.2436 331.174C74.4639 331.174 77.8852 327.753 77.8852 323.532C77.8852 319.312 74.4639 315.891 70.2436 315.891C66.0232 315.891 62.6019 319.312 62.6019 323.532C62.6019 327.753 66.0232 331.174 70.2436 331.174Z" stroke="#FFDADA" stroke-linecap="round" stroke-linejoin="round"/>
<path d="M189.276 221.369C189.276 221.769 189.157 222.16 188.935 222.493C188.713 222.825 188.397 223.085 188.027 223.238C187.658 223.391 187.251 223.431 186.859 223.353C186.466 223.275 186.106 223.082 185.823 222.799C185.54 222.516 185.347 222.156 185.269 221.763C185.191 221.371 185.231 220.964 185.384 220.595C185.538 220.225 185.797 219.909 186.129 219.687C186.462 219.465 186.853 219.346 187.253 219.346C187.79 219.346 188.304 219.559 188.684 219.939C189.063 220.318 189.276 220.832 189.276 221.369V221.369Z" stroke="#FFDADA" stroke-linecap="round" stroke-linejoin="round"/>
<path d="M96.7147 186.669C96.7147 188.082 96.2958 189.463 95.511 190.637C94.7262 191.812 93.6108 192.727 92.3057 193.268C91.0006 193.808 89.5646 193.95 88.1791 193.674C86.7937 193.399 85.5211 192.718 84.5222 191.72C83.5233 190.721 82.8431 189.448 82.5675 188.063C82.292 186.677 82.4334 185.241 82.974 183.936C83.5145 182.631 84.43 181.515 85.6045 180.731C86.779 179.946 88.1599 179.527 89.5725 179.527C91.4657 179.53 93.2804 180.284 94.6191 181.623C95.9579 182.961 96.7114 184.776 96.7147 186.669V186.669Z" stroke="#FFDADA" stroke-linecap="round" stroke-linejoin="round"/>
<path d="M411.409 283.414C411.409 284.214 411.171 284.996 410.727 285.661C410.282 286.326 409.65 286.845 408.911 287.151C408.172 287.457 407.358 287.538 406.574 287.381C405.789 287.225 405.068 286.84 404.502 286.274C403.937 285.708 403.551 284.988 403.395 284.203C403.239 283.418 403.319 282.605 403.625 281.865C403.932 281.126 404.45 280.494 405.115 280.05C405.781 279.605 406.563 279.368 407.363 279.368C408.436 279.368 409.465 279.794 410.224 280.553C410.982 281.312 411.409 282.341 411.409 283.414V283.414Z" stroke="#FFDADA" stroke-linecap="round" stroke-linejoin="round"/>
<path d="M370.516 160.111C375.515 160.111 379.568 156.058 379.568 151.058C379.568 146.058 375.515 142.005 370.516 142.005C365.516 142.005 361.463 146.058 361.463 151.058C361.463 156.058 365.516 160.111 370.516 160.111Z" stroke="#FFDADA" stroke-linecap="round" stroke-linejoin="round"/>
<path d="M314.776 232.432C315.251 233.143 329.573 236.003 337.002 246.804C341.325 253.009 344.951 259.671 347.815 266.669C347.815 266.669 360.239 274.061 366.607 280.155C372.975 286.248 380.567 294.339 386.423 298.584C392.279 302.83 404.329 310.884 407.363 320.311C407.363 320.311 389.295 369.794 384.188 380.732C379.081 391.67 366.483 414.882 366.483 414.882L344.007 510.366H213.637L209.192 477.614C209.192 477.614 169.235 469.773 152.541 455.139C152.541 455.139 150.968 418.928 157.948 386.626C164.928 354.324 188.664 287.159 204.747 266.644C204.747 266.644 230.431 254.358 253.094 250.412C253.094 250.412 267.803 238.787 277.43 237.551C287.057 236.315 314.776 232.432 314.776 232.432Z" fill="white"/>
<path d="M210.952 492.373C222.527 494.583 232.616 496.493 244.403 496.356C256.19 496.219 268.227 493.572 277.867 486.816C279.729 485.266 281.84 484.042 284.11 483.195C289.229 481.759 294.299 485.143 299.381 486.717C305.824 488.714 312.891 487.765 319.209 485.368C325.527 482.971 331.209 479.237 336.84 475.516C336.007 487.004 335.737 498.512 336.028 510.041L344.057 510.366L364.622 419.877C364.622 419.877 329.448 460.732 312.304 472.932L279.415 464.466C279.415 464.466 276.318 467.038 269.801 468.337C269.801 468.337 266.816 479.812 250.035 479.837C233.253 479.862 209.192 477.614 209.192 477.614L210.952 492.373Z" fill="#FFDADA"/>
<path opacity="0.5" d="M210.952 492.373C222.527 494.583 232.616 496.493 244.403 496.356C256.19 496.219 268.227 493.572 277.867 486.816C279.729 485.266 281.84 484.042 284.11 483.195C289.229 481.759 294.299 485.143 299.381 486.717C305.824 488.714 312.891 487.765 319.209 485.368C325.527 482.971 331.209 479.237 336.84 475.516C336.007 487.004 335.737 498.512 336.028 510.041L344.057 510.366L364.622 419.877C364.622 419.877 329.448 460.732 312.304 472.932L279.415 464.466C279.415 464.466 276.318 467.038 269.801 468.337C269.801 468.337 266.816 479.812 250.035 479.837C233.253 479.862 209.192 477.614 209.192 477.614L210.952 492.373Z" fill="white"/>
<path d="M177.252 323.532C177.252 323.532 161.981 397.664 162.755 423.124C162.755 423.124 183.507 417.305 197.992 423.124C197.992 423.124 173.343 420.377 162.73 431.677C152.117 442.977 184.781 472.669 250.135 466.638C250.135 466.638 263.17 470.722 269.788 468.324C269.788 468.324 268.015 480.136 250.022 479.824C232.104 479.112 179.687 478.675 152.529 455.151C152.541 455.164 149.12 387.013 177.252 323.532Z" fill="#FFDADA"/>
<path opacity="0.6" d="M177.252 323.532C177.252 323.532 161.981 397.664 162.755 423.124C162.755 423.124 183.507 417.305 197.992 423.124C197.992 423.124 173.343 420.377 162.73 431.677C152.117 442.977 184.781 472.669 250.135 466.638C250.135 466.638 263.17 470.722 269.788 468.324C269.788 468.324 268.015 480.136 250.022 479.824C232.104 479.112 179.687 478.675 152.529 455.151C152.541 455.164 149.12 387.013 177.252 323.532Z" fill="white"/>
<path d="M208.48 337.742C208.48 337.742 212.988 370.568 220.267 377.436C227.547 384.303 261.472 382.056 274.908 389.46C274.908 389.46 287.556 367.547 310.431 353.837L279.415 402.671L252.607 396.34L219.88 391.346L217.133 397.664H212.214C212.214 397.664 211.664 362.627 208.48 337.742Z" fill="#FFDADA"/>
<path opacity="0.5" d="M208.48 337.742C208.48 337.742 212.988 370.568 220.267 377.436C227.547 384.303 261.472 382.056 274.908 389.46C274.908 389.46 287.556 367.547 310.431 353.837L279.415 402.671L252.607 396.34L219.88 391.346L217.133 397.664H212.214C212.214 397.664 211.664 362.627 208.48 337.742Z" fill="white"/>
<path d="M336.703 270.877C350.725 279.131 352.298 288.433 355.182 295.076C347.89 296.524 340.349 298.073 334.33 302.43C326.838 307.874 322.78 316.89 319.634 325.642C316.657 333.926 314.156 342.372 312.142 350.94C318.919 338.696 328.553 328.27 340.224 320.548C346.954 316.103 355.27 312.519 362.949 315.029C356.506 317.764 349.214 321.46 347.853 328.327C347.585 329.467 347.633 330.658 347.99 331.773C349.139 335.007 353.16 335.881 356.206 337.455C362.15 340.514 365.246 347.444 365.509 354.161C365.771 360.879 363.711 367.372 361.675 373.727C359.886 379.296 358.096 384.865 356.306 390.434C354.021 397.551 351.699 404.769 347.566 411.012C343.433 417.255 337.227 422.487 329.848 423.71C326.762 424.305 323.569 423.944 320.695 422.674C318.516 421.49 316.491 420.043 314.664 418.366C305.811 411.217 295.172 406.623 283.898 405.081C298.407 414.67 305.274 432.089 311.293 448.408C308.529 443.571 304.547 439.542 299.743 436.721C298.512 435.864 297.048 435.402 295.548 435.398C291.602 435.71 290.353 440.742 287.981 443.888C285.134 447.634 279.927 448.97 275.257 448.371C270.587 447.772 266.292 445.587 262.097 443.376L209.017 416.006L205.271 427.244C205.271 427.244 247.55 460.957 312.329 472.882C312.329 472.882 354.408 439.63 369.317 410.15C384.226 380.67 407.388 320.248 407.388 320.248C407.388 320.248 398.91 304.191 384.376 295.813C384.376 295.813 373.525 290.681 371.24 284.338C368.955 277.995 348.565 267.044 348.565 267.044C348.565 267.044 351.212 273.812 336.703 270.877Z" fill="#FFDADA"/>
<path opacity="0.6" d="M336.703 270.877C350.725 279.131 352.298 288.433 355.182 295.076C347.89 296.524 340.349 298.073 334.33 302.43C326.838 307.874 322.78 316.89 319.634 325.642C316.657 333.926 314.156 342.372 312.142 350.94C318.919 338.696 328.553 328.27 340.224 320.548C346.954 316.103 355.27 312.519 362.949 315.029C356.506 317.764 349.214 321.46 347.853 328.327C347.585 329.467 347.633 330.658 347.99 331.773C349.139 335.007 353.16 335.881 356.206 337.455C362.15 340.514 365.246 347.444 365.509 354.161C365.771 360.879 363.711 367.372 361.675 373.727C359.886 379.296 358.096 384.865 356.306 390.434C354.021 397.551 351.699 404.769 347.566 411.012C343.433 417.255 337.227 422.487 329.848 423.71C326.762 424.305 323.569 423.944 320.695 422.674C318.516 421.49 316.491 420.043 314.664 418.366C305.811 411.217 295.172 406.623 283.898 405.081C298.407 414.67 305.274 432.089 311.293 448.408C308.529 443.571 304.547 439.542 299.743 436.721C298.512 435.864 297.048 435.402 295.548 435.398C291.602 435.71 290.353 440.742 287.981 443.888C285.134 447.634 279.927 448.97 275.257 448.371C270.587 447.772 266.292 445.587 262.097 443.376L209.017 416.006L205.271 427.244C205.271 427.244 247.55 460.957 312.329 472.882C312.329 472.882 354.408 439.63 369.317 410.15C384.226 380.67 407.388 320.248 407.388 320.248C407.388 320.248 398.91 304.191 384.376 295.813C384.376 295.813 373.525 290.681 371.24 284.338C368.955 277.995 348.565 267.044 348.565 267.044C348.565 267.044 351.212 273.812 336.703 270.877Z" fill="white"/>
<path d="M332.245 155.94C332.245 155.94 335.079 122.889 320.833 119.73C306.586 116.571 298.582 103.498 298.582 103.498L248.037 117.607L240.196 147.999L245.19 163.382C245.19 163.382 246.239 177.654 246.439 184.709C246.639 191.764 246.439 197.195 251.783 205.761C257.127 214.327 262.097 222.83 273.647 230.234V249.7C273.647 249.7 266.504 270.54 270.45 283.326C270.45 283.326 272.81 285.823 279.328 282.078C285.846 278.332 313.728 259.702 323.455 240.248L326.476 190.79C326.476 190.79 334.505 192.038 337.964 184.721C343.046 177.567 342.846 169.226 340.873 162.433C338.9 155.641 330.41 160.036 330.41 160.036L332.245 155.94Z" fill="#999999"/>
<path d="M274.196 204.4C275.625 202.844 277.386 201.629 279.349 200.847C281.312 200.064 283.426 199.734 285.533 199.88C285.533 199.88 291.614 190.278 298.02 192.038C298.02 192.038 299.993 202.215 292.314 206.223C282.324 211.43 274.196 204.4 274.196 204.4Z" fill="#737373"/>
<path d="M255.416 113.399C255.416 113.399 243.317 129.294 244.016 145.864C244.715 162.433 247.125 174.183 246.426 186.969C245.727 199.755 259.212 221.169 273.035 229.797C283.361 236.253 296.309 235.154 306.361 228.548C317.598 221.057 323.779 207.596 326.039 194.673C326.264 193.424 326.439 192.176 326.564 190.827" stroke="#263238" stroke-linecap="round" stroke-linejoin="round"/>
<path d="M273.035 229.81C273.035 229.81 274.995 247.715 273.035 253.846C270.875 260.576 268.265 276.246 270.537 283.326C272.81 290.406 315.326 260.651 323.542 240.236C323.542 240.236 324.678 200.567 327.513 190.652" stroke="#263238" stroke-linecap="round" stroke-linejoin="round"/>
<path d="M271.861 203.963C271.861 203.963 291.202 209.432 299.119 189.466" stroke="#263238" stroke-linecap="round" stroke-linejoin="round"/>
<path d="M273.422 234.117C273.422 234.117 277.542 246.891 286.433 247.653C295.323 248.414 317.561 230.596 325.14 209.607V199.106C325.14 199.106 318.897 226.576 300.617 231.57C282.337 236.565 273.784 230.209 273.784 230.209L273.422 234.117Z" fill="#263238"/>
<path d="M298.007 192.038C289.417 191.439 285.521 199.88 285.521 199.88C283.404 199.621 281.255 199.9 279.274 200.69C277.293 201.48 275.542 202.756 274.183 204.4C276.3 206.298 278.902 207.572 281.699 208.079C284.497 208.586 287.38 208.307 290.029 207.272C299.793 203.875 298.007 192.038 298.007 192.038Z" stroke="#263238" stroke-linecap="round" stroke-linejoin="round"/>
<path d="M276.468 154.379C276.575 158.341 276.4 162.305 275.944 166.242C275.482 169.775 273.846 173.159 272.485 176.48C271.237 179.502 269.151 184.147 270.887 187.331C272.86 190.94 279.415 187.331 279.415 187.331" stroke="#263238" stroke-linecap="round" stroke-linejoin="round"/>
<path d="M283.448 186.582C285.658 186.881 288.792 186.582 289.417 182.749" stroke="#263238" stroke-linecap="round" stroke-linejoin="round"/>
<path d="M290.59 149.61C292.727 147.572 295.567 146.435 298.519 146.435C301.472 146.435 304.312 147.572 306.448 149.61" stroke="#263238" stroke-width="2" stroke-linecap="round" stroke-linejoin="round"/>
<path d="M265.393 152.731C265.393 152.731 259.537 145.239 251.87 152.731" stroke="#263238" stroke-width="2" stroke-linecap="round" stroke-linejoin="round"/>
<path d="M321.969 171.673C321.969 171.673 328.649 155.628 337.364 159.074C343.37 161.459 343.732 171.823 340.548 179.053C337.364 186.282 335.766 193.649 325.153 189.529" stroke="#263238" stroke-linecap="round" stroke-linejoin="round"/>
<path d="M323.155 169.213C323.155 169.213 316.737 166.941 315.551 156.515C314.364 146.089 320.757 135.65 318.385 128.158C316.013 120.666 297.321 124.412 293.063 111.351C293.063 111.351 279.028 121.815 251.858 119.568C251.858 119.568 246.126 129.332 245.128 135.3C243.79 144.632 243.823 154.11 245.227 163.432C245.227 163.757 245.34 164.069 245.402 164.394C247.35 174.557 237.648 150.559 237.91 140.307C238.173 130.056 231.992 117.033 240.046 107.331C248.099 97.629 277.63 91.9477 283.448 87.3901C289.267 82.8326 300.579 94.9694 313.653 99.4395C326.726 103.91 337.564 109.241 335.916 127.784C334.268 146.326 336.003 148.811 336.078 158.575C336.078 158.6 330.035 156.327 323.155 169.213Z" fill="#263238"/>
<path d="M298.544 163.12C298.544 165.617 297.583 167.69 296.384 167.69C295.185 167.69 294.236 165.642 294.236 163.12C294.236 160.598 295.198 158.562 296.384 158.562C297.57 158.562 298.544 160.623 298.544 163.12Z" fill="#263238"/>
<path d="M265.393 163.12C265.393 165.617 264.432 167.69 263.245 167.69C262.059 167.69 261.098 165.642 261.098 163.12C261.098 160.598 262.059 158.562 263.245 158.562C264.432 158.562 265.393 160.623 265.393 163.12Z" fill="#263238"/>
<path d="M290.59 169.213C290.59 169.213 295.048 173.946 300.692 174.62" stroke="#263238" stroke-linecap="round" stroke-linejoin="round"/>
<path d="M260.224 174.62C260.224 174.62 268.377 174.046 270.213 169.213" stroke="#263238" stroke-linecap="round" stroke-linejoin="round"/>
<path d="M279.178 286.36C285.246 282.502 293.275 283.951 299.918 286.685C303.564 288.196 307.035 290.094 310.668 291.68C312.465 292.474 314.318 293.133 316.212 293.652C320.77 294.839 319.134 289.182 318.872 286.648C318.497 283.014 318.235 279.368 317.798 275.759C317.619 275.012 317.707 274.226 318.048 273.537C318.496 272.981 319.122 272.597 319.821 272.451C327.825 269.953 336.453 271.052 344.794 271.202C345.551 271.291 346.318 271.148 346.991 270.79C348.24 269.978 348.103 268.143 347.765 266.694C344.881 254.358 334.705 242.084 323.642 235.915" stroke="#263238" stroke-linecap="round" stroke-linejoin="round"/>
<path d="M273.734 237.913C268.227 240.211 262.571 242.596 257.826 246.117C256.105 247.372 254.519 248.803 253.094 250.387C251.946 251.479 251.224 252.944 251.059 254.52C251.089 255.253 251.284 255.97 251.627 256.618C251.971 257.266 252.455 257.829 253.044 258.266C253.882 258.956 254.805 259.535 255.791 259.989C258.088 261.075 260.785 262.137 261.759 264.447C261.996 264.931 262.083 265.474 262.009 266.008C261.885 266.476 261.645 266.906 261.31 267.256C259.412 269.566 256.066 271.352 256.315 274.336C256.478 276.646 258.813 278.082 260.885 279.106C262.958 280.13 265.38 281.191 266.092 283.401" stroke="#263238" stroke-linecap="round" stroke-linejoin="round"/>
<path d="M241.132 120.829C241.944 115.834 247.163 112.613 252.182 111.801C257.202 110.989 262.359 111.801 267.416 111.364C271.645 110.946 275.736 109.625 279.41 107.49C283.085 105.356 286.259 102.457 288.717 98.99" stroke="white" stroke-linecap="round" stroke-linejoin="round"/>
<path d="M246.813 106.794C255.878 101.437 268.614 107.006 277.455 101.287C279.956 99.4661 282.134 97.2375 283.898 94.6947" stroke="white" stroke-linecap="round" stroke-linejoin="round"/>
<path d="M362.449 311.708C329.985 318.188 317.873 342.075 317.873 342.075L279.415 402.646" stroke="#263238" stroke-linecap="round" stroke-linejoin="round"/>
<path d="M335.004 305.165C337.698 302.67 340.749 300.59 344.057 298.997" stroke="#263238" stroke-linecap="round" stroke-linejoin="round"/>
<path d="M312.304 350.89C312.304 350.89 316.4 329.014 328.162 312.894" stroke="#263238" stroke-linecap="round" stroke-linejoin="round"/>
<path d="M212.213 397.564C212.213 397.564 210.528 330.55 204.722 320.311" stroke="#263238" stroke-linecap="round" stroke-linejoin="round"/>
<path d="M347.815 266.669C347.815 266.669 366.545 277.907 374.861 288.471C383.177 299.034 402.83 306.051 407.325 320.311C407.325 320.311 381.441 401.872 354.321 431.352C327.2 460.832 312.267 472.932 312.267 472.932C312.267 472.932 247.026 461.594 204.709 426.058L219.843 391.283C219.843 391.283 262.509 396.677 279.378 402.671C296.247 408.664 312.267 444.962 312.267 444.962" stroke="#263238" stroke-linecap="round" stroke-linejoin="round"/>
<path d="M279.415 402.671C279.415 402.671 309.283 408.477 318.984 422.075" stroke="#263238" stroke-linecap="round" stroke-linejoin="round"/>
<path d="M365.359 416.656L344.057 510.366H213.637L209.192 477.614" stroke="#263238" stroke-linecap="round" stroke-linejoin="round"/>
<path d="M269.801 468.337C262.596 483.096 253.094 479.837 253.094 479.837C179.612 482.621 152.541 455.164 152.541 455.164C152.541 455.164 148.795 416.543 163.242 364.425C177.689 312.307 204.747 266.669 204.747 266.669C216.746 258.691 243.517 252.46 251.071 250.812L253.094 250.387" stroke="#263238" stroke-linecap="round" stroke-linejoin="round"/>
<path d="M253.131 479.837C253.131 479.837 249.248 479.2 250.234 453.453" stroke="#263238" stroke-linecap="round" stroke-linejoin="round"/>
<path d="M206.732 427.706C206.732 427.706 188.377 421.238 165.639 436.971" stroke="#263238" stroke-linecap="round" stroke-linejoin="round"/>
<path d="M169.76 422.075C169.76 422.075 193.809 414.92 204.722 426.382" stroke="#263238" stroke-linecap="round" stroke-linejoin="round"/>
<path d="M202.125 425.733L205.246 427.294L217.133 397.601C217.133 397.601 204.822 395.591 185.318 419.877C191.408 419.948 197.309 422.004 202.125 425.733V425.733Z" fill="#999999" stroke="#263238" stroke-miterlimit="10"/>
<path d="M250.197 453.453V466.651C250.197 466.651 267.016 471.646 279.465 464.466L250.197 453.453Z" fill="#999999" stroke="#263238" stroke-miterlimit="10"/>
<path d="M341.36 271.065C341.372 271.308 341.347 271.553 341.285 271.789C340.761 273.849 327.937 322.259 286.894 343.798C286.537 343.989 286.138 344.088 285.733 344.085C285.175 344.085 284.633 343.897 284.194 343.553C283.755 343.209 283.444 342.727 283.31 342.186C283.176 341.644 283.228 341.073 283.457 340.564C283.686 340.055 284.078 339.637 284.572 339.377C322.031 319.736 335.229 274.973 336.378 270.852L341.36 271.065Z" fill="#263238"/>
<path d="M253.044 258.229C246.556 273.048 243.055 289.003 242.743 305.177C242.743 306.488 242.743 307.824 242.743 309.185C242.743 309.523 242.743 309.86 242.743 310.197C242.37 310.21 241.999 310.247 241.631 310.309C240.28 310.522 238.97 310.944 237.748 311.558C237.748 309.722 237.748 307.937 237.748 306.176C238.285 278.157 246.651 259.09 251.109 250.849L253.131 250.425C251.983 251.517 251.262 252.982 251.096 254.558C251.133 255.275 251.327 255.975 251.663 256.609C252 257.243 252.471 257.796 253.044 258.229V258.229Z" fill="#263238"/>
<path d="M302.215 332.535C305.137 336.593 302.74 343.336 296.846 347.594C290.953 351.851 283.81 352.001 280.876 347.943C277.942 343.885 280.339 337.142 286.233 332.885C292.126 328.627 299.331 328.477 302.215 332.535Z" fill="white" stroke="#263238" stroke-linecap="round" stroke-linejoin="round"/>
<path d="M294.948 330.125C297.021 332.997 295.323 337.767 291.202 340.776C287.082 343.785 281.975 343.898 279.965 341.026C277.954 338.154 279.59 333.384 283.71 330.375C287.831 327.366 292.875 327.266 294.948 330.125Z" fill="white" stroke="#263238" stroke-linecap="round" stroke-linejoin="round"/>
<path d="M261.947 380.807C261.415 381.161 260.768 381.297 260.138 381.188C259.509 381.08 258.945 380.734 258.563 380.222C258.181 379.71 258.01 379.072 258.084 378.437C258.158 377.803 258.472 377.221 258.963 376.812C259.175 376.637 267.553 369.507 263.882 345.496C263.57 343.46 263.17 341.288 262.633 339.003C261.048 331.723 258.6 322.508 253.593 315.741C252.402 313.956 250.771 312.508 248.857 311.537C246.944 310.566 244.812 310.104 242.668 310.197C242.295 310.21 241.924 310.247 241.557 310.309C240.205 310.522 238.895 310.944 237.673 311.558C233.943 313.485 231.112 316.791 229.782 320.773L229.332 322.021C226.501 329.678 224.186 337.517 222.402 345.483C220.405 355.285 219.73 365.561 223.276 372.741C224.227 374.711 225.58 376.459 227.249 377.872C228.919 379.286 230.866 380.332 232.966 380.945C233.53 381.13 234.009 381.51 234.318 382.016C234.627 382.523 234.746 383.123 234.652 383.709C234.559 384.295 234.26 384.829 233.81 385.215C233.359 385.6 232.785 385.813 232.192 385.814C231.929 385.814 231.667 385.772 231.418 385.689C228.687 384.87 226.156 383.492 223.985 381.643C221.815 379.795 220.051 377.516 218.806 374.951C214.811 366.872 215.335 355.872 217.358 345.483C219.151 336.94 221.58 328.542 224.625 320.361L225.075 319.112C226.056 316.14 227.7 313.43 229.883 311.187C232.066 308.944 234.729 307.226 237.673 306.164C238.692 305.811 239.741 305.552 240.807 305.39C241.444 305.302 242.056 305.24 242.705 305.202C245.628 305.122 248.524 305.776 251.129 307.104C253.733 308.433 255.963 310.393 257.614 312.806C263.183 320.298 265.83 330.2 267.516 337.966C268.103 340.639 268.552 343.148 268.889 345.521C272.835 372.441 262.434 380.458 261.947 380.807Z" fill="#263238" stroke="#263238" stroke-miterlimit="10"/>
<path d="M230.444 385.377C230.444 385.377 239.496 389.123 241.794 385.377C244.091 381.631 242.231 379.871 239.097 379.571C235.973 379.411 232.843 379.411 229.719 379.571L230.444 385.377Z" fill="#263238" stroke="#263238" stroke-miterlimit="10"/>
<path d="M234.602 384.129C234.438 384.629 234.121 385.066 233.695 385.375C233.269 385.684 232.756 385.851 232.229 385.852C231.966 385.851 231.705 385.809 231.455 385.727C228.724 384.907 226.194 383.529 224.023 381.681C221.852 379.833 220.088 377.554 218.844 374.989C214.848 366.91 215.373 355.909 217.395 345.521H222.39C220.392 355.323 219.718 365.599 223.264 372.779C224.214 374.748 225.568 376.497 227.237 377.91C228.906 379.323 230.854 380.37 232.953 380.982C233.269 381.079 233.563 381.237 233.817 381.448C234.071 381.659 234.281 381.919 234.435 382.211C234.588 382.504 234.682 382.824 234.71 383.153C234.739 383.482 234.702 383.814 234.602 384.129Z" fill="white" stroke="#263238" stroke-linecap="round" stroke-linejoin="round"/>
<path d="M253.606 378.098C253.23 378.545 252.952 379.066 252.79 379.627C252.629 380.189 252.588 380.778 252.669 381.357C252.919 382.212 253.46 382.953 254.199 383.45C254.939 383.947 255.829 384.17 256.715 384.079C258.489 383.843 260.11 382.952 261.26 381.581C262.509 380.183 266.841 371.03 262.833 372.604C259.924 373.702 255.554 375.563 253.606 378.098Z" fill="#263238" stroke="#263238" stroke-miterlimit="10"/>
<path d="M261.947 380.807C261.415 381.161 260.768 381.297 260.138 381.188C259.509 381.08 258.945 380.734 258.563 380.222C258.181 379.71 258.009 379.072 258.084 378.437C258.158 377.803 258.472 377.221 258.962 376.812C259.175 376.637 267.553 369.507 263.882 345.496H268.877C272.835 372.441 262.434 380.458 261.947 380.807Z" fill="white" stroke="#263238" stroke-linecap="round" stroke-linejoin="round"/>
<path opacity="0.2" d="M284.347 160.111C284.347 160.111 300.068 151.945 314.514 160.111C314.514 160.111 314.752 172.16 309.295 177.117C307.36 178.878 298.494 179.177 295.135 178.878C281.5 177.642 284.347 160.111 284.347 160.111Z" fill="white"/>
<path opacity="0.2" d="M274.483 160.111C274.483 160.111 258.763 151.945 244.328 160.111C244.328 160.111 244.091 172.16 249.535 177.117C251.471 178.878 260.348 179.177 263.695 178.878C277.33 177.642 274.483 160.111 274.483 160.111Z" fill="white"/>
<path d="M284.347 160.111C284.347 160.111 300.068 151.945 314.514 160.111C314.514 160.111 314.752 172.16 309.295 177.117C307.36 178.878 298.494 179.177 295.135 178.878C281.5 177.642 284.347 160.111 284.347 160.111Z" stroke="#263238" stroke-miterlimit="10"/>
<path d="M274.483 160.111C274.483 160.111 258.763 151.945 244.328 160.111C244.328 160.111 244.091 172.16 249.535 177.117C251.471 178.878 260.348 179.177 263.695 178.878C277.33 177.642 274.483 160.111 274.483 160.111Z" stroke="#263238" stroke-miterlimit="10"/>
<path d="M274.483 160.111C274.483 160.111 278.004 157.526 284.347 160.111" stroke="#263238" stroke-miterlimit="10"/>
<path d="M314.514 160.111L321.082 163.157" stroke="#263238" stroke-miterlimit="10"/>
<path d="M63.1139 543.604L109.326 499.952H476.1L503.87 543.604H63.1139Z" fill="white" stroke="#263238" stroke-linecap="round" stroke-linejoin="round"/>
<path d="M503.87 543.604H63.1139V555.354H503.87V543.604Z" fill="#263238" stroke="#263238" stroke-linecap="round" stroke-linejoin="round"/>
<path d="M109.326 532.816V523.764H181.747V532.816H167.775H109.326Z" fill="white" stroke="#263238" stroke-miterlimit="10"/>
<path d="M109.326 523.764L152.104 495.07L209.192 496.418L181.747 523.764H109.326Z" fill="white" stroke="#263238" stroke-linecap="round" stroke-linejoin="round"/>
<path d="M181.747 532.816L209.192 505.321V496.418L181.747 523.764V532.816Z" fill="white" stroke="#263238" stroke-linecap="round" stroke-linejoin="round"/>
<path d="M179.786 521.479C179.786 521.479 174.005 522.627 174.005 527.634C174.005 532.641 179 534.115 179 534.115" stroke="#263238" stroke-width="2" stroke-linecap="round" stroke-linejoin="round"/>
<path d="M174.005 521.479C174.005 521.479 168.224 522.627 168.224 527.634C168.224 532.641 173.219 534.115 173.219 534.115" stroke="#263238" stroke-width="2" stroke-linecap="round" stroke-linejoin="round"/>
<path d="M168.224 521.479C168.224 521.479 162.443 522.627 162.443 527.634C162.443 532.641 167.437 534.115 167.437 534.115" stroke="#263238" stroke-width="2" stroke-linecap="round" stroke-linejoin="round"/>
<path d="M162.443 521.479C162.443 521.479 156.662 522.627 156.662 527.634C156.662 532.641 161.656 534.115 161.656 534.115" stroke="#263238" stroke-width="2" stroke-linecap="round" stroke-linejoin="round"/>
<path d="M156.662 521.479C156.662 521.479 150.88 522.627 150.88 527.634C150.88 532.641 155.875 534.115 155.875 534.115" stroke="#263238" stroke-width="2" stroke-linecap="round" stroke-linejoin="round"/>
<path d="M150.881 521.479C150.881 521.479 145.099 522.627 145.099 527.634C145.099 532.641 150.094 534.115 150.094 534.115" stroke="#263238" stroke-width="2" stroke-linecap="round" stroke-linejoin="round"/>
<path d="M145.099 521.479C145.099 521.479 139.318 522.627 139.318 527.634C139.318 532.641 144.313 534.115 144.313 534.115" stroke="#263238" stroke-width="2" stroke-linecap="round" stroke-linejoin="round"/>
<path d="M139.318 521.479C139.318 521.479 133.537 522.627 133.537 527.634C133.537 532.641 138.532 534.115 138.532 534.115" stroke="#263238" stroke-width="2" stroke-linecap="round" stroke-linejoin="round"/>
<path d="M132.825 521.479C132.825 521.479 127.044 522.627 127.044 527.634C127.044 532.641 132.039 534.115 132.039 534.115" stroke="#263238" stroke-width="2" stroke-linecap="round" stroke-linejoin="round"/>
<path d="M126.32 521.479C126.32 521.479 120.539 522.627 120.539 527.634C120.539 532.641 125.533 534.115 125.533 534.115" stroke="#263238" stroke-width="2" stroke-linecap="round" stroke-linejoin="round"/>
<path d="M119.09 521.479C119.09 521.479 113.309 522.627 113.309 527.634C113.309 532.641 118.304 534.115 118.304 534.115" stroke="#263238" stroke-width="2" stroke-linecap="round" stroke-linejoin="round"/>
<path d="M155.738 502.1C151.75 504.3 148.589 507.741 146.735 511.902C151.992 510.241 156.15 506.495 160.133 502.749L155.813 513.462C157.802 513.301 159.724 512.673 161.425 511.629C163.126 510.586 164.557 509.156 165.602 507.456C165.26 507.604 164.953 507.822 164.7 508.097C164.448 508.372 164.257 508.696 164.139 509.05C164.021 509.404 163.98 509.778 164.016 510.149C164.053 510.52 164.168 510.879 164.353 511.202C167.974 510.678 170.284 507.182 172.107 504.01C172.442 505.775 172.572 507.572 172.494 509.367C175.523 509.801 178.612 509.408 181.435 508.231" stroke="#263238" stroke-width="0.75" stroke-linecap="round" stroke-linejoin="round"/>
<path d="M473.653 456.225H347.778V525.337H473.653V456.225Z" fill="white" stroke="#263238" stroke-linecap="round" stroke-linejoin="round"/>
<path d="M347.291 525.324L327.051 506.083V436.971L347.291 456.225V525.324Z" fill="white" stroke="#263238" stroke-linecap="round" stroke-linejoin="round"/>
<path d="M473.653 456.225L453.413 436.971H327.55L347.778 456.225H473.653Z" fill="white" stroke="#263238" stroke-linecap="round" stroke-linejoin="round"/>
<path d="M427.366 482.147H416.241V470.509H400.558V482.147H388.421V497.829H400.558V509.454H416.241V497.829H427.366V482.147Z" fill="#FFDADA" stroke="#263238" stroke-miterlimit="10"/>
<path d="M409.623 456.225L389.383 436.971" stroke="#263238" stroke-linecap="round" stroke-linejoin="round"/>
<path d="M143.559 162.489C158.241 147.807 158.241 124.002 143.559 109.32C128.877 94.6372 105.072 94.6372 90.3896 109.32C75.7073 124.002 75.7073 147.807 90.3896 162.489C105.072 177.171 128.877 177.171 143.559 162.489Z" fill="white" stroke="#263238" stroke-linecap="round" stroke-linejoin="round"/>
<path d="M148.246 130.143C148.246 132.66 147.456 135.113 145.989 137.158C144.522 139.203 142.451 140.737 140.067 141.544L123.273 147.2L102.833 154.105C99.8219 155.095 96.5416 154.854 93.707 153.436C90.8723 152.018 88.7131 149.537 87.6999 146.533C86.6867 143.53 86.9017 140.248 88.2979 137.402C89.6942 134.557 92.1585 132.379 95.1539 131.342L113.721 125.099L132.376 118.856C134.18 118.249 136.104 118.079 137.987 118.36C139.87 118.642 141.659 119.367 143.208 120.475C144.756 121.583 146.019 123.043 146.893 124.735C147.767 126.427 148.226 128.302 148.233 130.206L148.246 130.143Z" fill="white"/>
<path d="M148.246 130.143C148.246 132.66 147.456 135.113 145.989 137.158C144.522 139.203 142.451 140.737 140.067 141.543L123.273 147.2C122.825 138.926 119.438 131.084 113.721 125.086L132.376 118.843C134.181 118.236 136.104 118.067 137.987 118.348C139.87 118.629 141.659 119.354 143.208 120.462C144.756 121.571 146.019 123.031 146.893 124.722C147.767 126.414 148.226 128.289 148.234 130.193L148.246 130.143Z" fill="#FFDADA"/>
<path d="M148.246 130.143C148.246 132.66 147.456 135.113 145.989 137.158C144.522 139.203 142.451 140.737 140.067 141.544L123.273 147.2L102.833 154.105C99.8219 155.095 96.5416 154.854 93.707 153.436C90.8723 152.018 88.7131 149.537 87.6999 146.533C86.6867 143.53 86.9017 140.248 88.2979 137.402C89.6942 134.557 92.1585 132.379 95.1539 131.342L113.721 125.099L132.376 118.856C134.18 118.249 136.104 118.079 137.987 118.36C139.87 118.642 141.659 119.367 143.208 120.475C144.756 121.583 146.019 123.043 146.893 124.735C147.767 126.427 148.226 128.302 148.233 130.206L148.246 130.143Z" stroke="#263238" stroke-linecap="round" stroke-linejoin="round"/>
<path d="M123.273 147.2C122.891 138.911 119.494 131.047 113.721 125.086" stroke="#263238" stroke-linecap="round" stroke-linejoin="round"/>
<path d="M144.225 125.661C145.014 126.989 145.412 128.512 145.374 130.056" stroke="white" stroke-linecap="round" stroke-linejoin="round"/>
<path d="M118.466 126.91L133.45 121.915C134.794 121.454 136.223 121.297 137.635 121.454C139.047 121.612 140.406 122.081 141.616 122.826" stroke="white" stroke-linecap="round" stroke-linejoin="round"/>
<path d="M372.429 84.9C391.551 76.8069 400.492 54.7449 392.399 35.6231C384.306 16.5013 362.244 7.56075 343.122 15.6538C324 23.7469 315.059 45.809 323.153 64.9308C331.246 84.0526 353.308 92.9931 372.429 84.9Z" fill="white" stroke="#263238" stroke-linecap="round" stroke-linejoin="round"/>
<path d="M370.74 66.0135L337.951 55.038C335.225 54.1214 332.974 52.1598 331.693 49.5843C330.412 47.0088 330.207 44.0301 331.121 41.303V41.303C332.038 38.5765 333.999 36.3256 336.575 35.0448C339.15 33.7641 342.129 33.5584 344.856 34.4729L377.645 45.436C380.37 46.3553 382.619 48.3173 383.899 50.8919C385.179 53.4666 385.387 56.4437 384.475 59.171V59.171C383.559 61.8977 381.598 64.1494 379.023 65.4322C376.448 66.715 373.469 66.924 370.74 66.0135V66.0135Z" fill="#FFDADA"/>
<path d="M346.717 54.1639L352.211 41.0408" stroke="#263238" stroke-linecap="round" stroke-linejoin="round"/>
<path d="M364.784 60.1699L370.253 47.0842" stroke="#263238" stroke-linecap="round" stroke-linejoin="round"/>
<path d="M351.249 54.9381C351.863 54.9381 352.361 54.4405 352.361 53.8268C352.361 53.2131 351.863 52.7155 351.249 52.7155C350.635 52.7155 350.138 53.2131 350.138 53.8268C350.138 54.4405 350.635 54.9381 351.249 54.9381Z" fill="#263238"/>
<path d="M362.175 57.0982C362.175 57.318 362.11 57.5329 361.988 57.7156C361.865 57.8984 361.692 58.0408 361.489 58.1249C361.286 58.209 361.062 58.231 360.847 58.1882C360.631 58.1453 360.433 58.0394 360.278 57.884C360.122 57.7286 360.017 57.5306 359.974 57.315C359.931 57.0995 359.953 56.876 360.037 56.673C360.121 56.4699 360.263 56.2963 360.446 56.1742C360.629 56.0521 360.844 55.9869 361.064 55.9869C361.358 55.9869 361.641 56.104 361.849 56.3124C362.058 56.5208 362.175 56.8035 362.175 57.0982Z" fill="#263238"/>
<path d="M355.557 45.0489C356.171 45.0489 356.668 44.5513 356.668 43.9376C356.668 43.3238 356.171 42.8263 355.557 42.8263C354.943 42.8263 354.446 43.3238 354.446 43.9376C354.446 44.5513 354.943 45.0489 355.557 45.0489Z" fill="#263238"/>
<path d="M366.32 47.1091C366.32 47.3289 366.255 47.5438 366.133 47.7265C366.011 47.9093 365.837 48.0517 365.634 48.1358C365.431 48.2199 365.208 48.2419 364.992 48.1991C364.777 48.1562 364.579 48.0503 364.423 47.8949C364.268 47.7395 364.162 47.5415 364.119 47.3259C364.076 47.1104 364.098 46.8869 364.182 46.6838C364.266 46.4808 364.409 46.3072 364.592 46.1851C364.774 46.063 364.989 45.9978 365.209 45.9978C365.504 45.9978 365.786 46.1149 365.995 46.3233C366.203 46.5317 366.32 46.8144 366.32 47.1091V47.1091Z" fill="#263238"/>
<path d="M370.74 66.0135L337.951 55.038C335.225 54.1214 332.974 52.1598 331.693 49.5843C330.412 47.0088 330.207 44.0301 331.121 41.303V41.303C332.038 38.5765 333.999 36.3256 336.575 35.0448C339.15 33.7641 342.129 33.5584 344.856 34.4729L377.645 45.436C380.37 46.3553 382.619 48.3173 383.899 50.8919C385.179 53.4666 385.387 56.4437 384.475 59.171V59.171C383.559 61.8977 381.598 64.1494 379.023 65.4322C376.448 66.715 373.469 66.924 370.74 66.0135V66.0135Z" stroke="#263238" stroke-linecap="round" stroke-linejoin="round"/>
<path d="M215.847 85.8294C236.611 85.8294 253.444 68.9969 253.444 48.2329C253.444 27.469 236.611 10.6365 215.847 10.6365C195.083 10.6365 178.251 27.469 178.251 48.2329C178.251 68.9969 195.083 85.8294 215.847 85.8294Z" fill="white" stroke="#263238" stroke-linecap="round" stroke-linejoin="round"/>
<path d="M237.386 49.1944V64.6025C237.386 68.5108 234.889 71.6823 231.83 71.6823H199.865C196.793 71.6823 194.308 68.5108 194.308 64.6025V49.1944C194.308 45.2861 196.805 42.1146 199.865 42.1146H205.121V33.1743H226.348V42.1146H231.792C234.889 42.1146 237.386 45.2861 237.386 49.1944Z" fill="white" stroke="#263238" stroke-linecap="round" stroke-linejoin="round"/>
<path d="M237.374 50.9674H194.308V60.5195H237.374V50.9674Z" fill="#FFDADA" stroke="#263238" stroke-miterlimit="10"/>
<path d="M208.056 22.7108H223.838C225.62 22.7108 227.329 23.4185 228.588 24.6783C229.848 25.9381 230.556 27.6468 230.556 29.4284V36.4083H201.325V29.4284C201.325 28.5452 201.5 27.6707 201.838 26.8548C202.176 26.039 202.672 25.2979 203.297 24.6739C203.923 24.05 204.665 23.5554 205.481 23.2185C206.297 22.8817 207.172 22.7091 208.056 22.7108V22.7108Z" fill="#FFDADA" stroke="#263238" stroke-miterlimit="10"/>
<path d="M206.432 23.1353V36.4083" stroke="#263238" stroke-linecap="round" stroke-linejoin="round"/>
<path d="M213.337 22.7108V36.4083" stroke="#263238" stroke-linecap="round" stroke-linejoin="round"/>
<path d="M220.242 22.7108V36.4083" stroke="#263238" stroke-linecap="round" stroke-linejoin="round"/>
<path d="M227.147 23.4849V36.4083" stroke="#263238" stroke-linecap="round" stroke-linejoin="round"/>
<path d="M119.525 253.765C122.884 233.275 108.997 213.941 88.5063 210.582C68.0159 207.223 48.682 221.11 45.3229 241.601C41.9638 262.091 55.8515 281.425 76.3419 284.784C96.8324 288.143 116.166 274.255 119.525 253.765Z" fill="white" stroke="#263238" stroke-linecap="round" stroke-linejoin="round"/>
<path d="M101.496 257.382C105.591 248.722 99.9603 237.47 88.9198 232.249C77.8792 227.028 65.6095 229.815 61.5145 238.474C57.4195 247.133 63.05 258.385 74.0905 263.606C85.131 268.828 97.4008 266.041 101.496 257.382Z" fill="#FFDADA" stroke="#263238" stroke-linecap="round" stroke-linejoin="round"/>
<path d="M102.861 254.437C106.703 246.314 100.867 235.496 89.8261 230.275C78.7856 225.054 66.7213 227.406 62.8799 235.529C59.0384 243.652 64.8744 254.47 75.915 259.691C86.9555 264.912 99.0197 262.56 102.861 254.437Z" fill="#FFDADA" stroke="#263238" stroke-linecap="round" stroke-linejoin="round"/>
<path d="M89.2478 233.868L75.6002 253.059" stroke="#263238" stroke-linecap="round" stroke-linejoin="round"/>
<path d="M81.0319 230.759C82.8609 231.005 84.6627 231.423 86.4135 232.007" stroke="white" stroke-linecap="round" stroke-linejoin="round"/>
<path d="M68.9076 248.826C68.9076 248.826 61.9402 241.197 68.7453 233.843C70.3157 232.242 72.3608 231.191 74.5764 230.846" stroke="white" stroke-linecap="round" stroke-linejoin="round"/>
<path d="M515.548 253.787C518.907 233.296 505.019 213.962 484.529 210.603C464.038 207.244 444.705 221.132 441.346 241.622C437.986 262.113 451.874 281.447 472.365 284.806C492.855 288.165 512.189 274.277 515.548 253.787Z" fill="white" stroke="#263238" stroke-linecap="round" stroke-linejoin="round"/>
<path d="M500.024 251.473C499.737 251.886 499.45 252.31 499.15 252.722C493.519 260.526 484.841 267.806 478.41 269.242V269.142C472.167 267.743 463.764 260.813 458.132 253.247C457.82 252.834 457.521 252.41 457.233 251.998C451.814 244.231 449.529 236.078 455.56 232.706C467.822 225.864 478.41 240.535 478.41 240.535C478.41 240.535 489.024 225.976 501.26 232.806C507.129 236.078 505.119 243.894 500.024 251.473Z" fill="#FFDADA" stroke="#263238" stroke-miterlimit="10"/>
<path d="M500.024 251.473C499.737 251.886 499.45 252.31 499.15 252.722H496.053L492.507 257.404L490.098 243.52L486.352 252.959H477.499L472.966 260.514L469.47 245.218L464.962 253.197H458.132C457.82 252.785 457.521 252.36 457.233 251.948H464.238L469.97 241.797L473.491 257.217L476.825 251.661H485.565L490.56 238.875L493.232 254.308L495.417 251.424L500.024 251.473Z" fill="white"/>
<path d="M442.25 173.921C463.014 173.921 479.846 157.088 479.846 136.324C479.846 115.56 463.014 98.7278 442.25 98.7278C421.486 98.7278 404.653 115.56 404.653 136.324C404.653 157.088 421.486 173.921 442.25 173.921Z" fill="white" stroke="#263238" stroke-linecap="round" stroke-linejoin="round"/>
<path d="M439.428 118.943C439.79 119.755 437.53 121.553 434.433 122.964C431.337 124.375 428.44 124.862 428.078 124.038C427.716 123.214 429.963 121.428 433.072 120.017C436.181 118.606 439.053 118.169 439.428 118.943Z" fill="white" stroke="#263238" stroke-linecap="round" stroke-linejoin="round"/>
<path d="M456.347 153.818L445.097 159.262L435.008 138.484L428.04 124.125L439.291 118.668L446.083 132.678L456.347 153.818Z" fill="white" stroke="#263238" stroke-linecap="round" stroke-linejoin="round"/>
<path d="M430.126 128.408L435.008 126.148Z" fill="#FFDADA"/>
<path d="M430.126 128.408L435.008 126.148" stroke="#263238" stroke-linecap="round" stroke-linejoin="round"/>
<path d="M432.248 132.928L437.13 130.668Z" fill="#FFDADA"/>
<path d="M432.248 132.928L437.13 130.668" stroke="#263238" stroke-linecap="round" stroke-linejoin="round"/>
<path d="M449.405 157.176L455.211 164.793L452.314 155.765L449.405 157.176Z" fill="white" stroke="#263238" stroke-linecap="round" stroke-linejoin="round"/>
<path d="M456.347 153.818C453.713 156.455 450.353 158.246 446.695 158.962L445.097 159.262L435.008 138.484L446.083 132.678L456.347 153.818Z" fill="#FFDADA" stroke="#263238" stroke-miterlimit="10"/>
<path d="M437.13 142.43L441.725 140.307" stroke="#263238" stroke-linecap="round" stroke-linejoin="round"/>
<path d="M439.653 147.262L444.16 145.202Z" fill="#FFDADA"/>
<path d="M439.653 147.262L444.16 145.202" stroke="#263238" stroke-linecap="round" stroke-linejoin="round"/>
<path d="M431.936 122.227L428.378 114.223L431.174 112.638L435.008 120.741L431.936 122.227Z" fill="white" stroke="#263238" stroke-linecap="round" stroke-linejoin="round"/>
<path d="M438.042 111.664L437.193 109.791L422.209 116.496L423.058 118.369C423.408 119.168 427.041 118.294 431.187 116.446C435.332 114.598 438.392 112.45 438.042 111.664Z" fill="white" stroke="#263238" stroke-linecap="round" stroke-linejoin="round"/>
<path d="M437.193 109.791C436.843 109.004 433.197 109.866 429.064 111.714C424.931 113.562 421.86 115.709 422.209 116.496C422.559 117.283 426.205 116.421 430.338 114.56C434.471 112.7 437.543 110.577 437.193 109.791Z" fill="white" stroke="#263238" stroke-linecap="round" stroke-linejoin="round"/>
</svg>
